# xmcd
#
# Track frame offsets: 
#        150
#        18690
#        36829
#        53283
#        74482
#        90436
#        113602
#        131694
#        151151
#        170103
#        187883
#        210418
#
# Disc length: 3000 seconds
#
# Revision: 0
# Processed by: cddbd v1.5.2PL0 Copyright (c) Steve Scherf et al.
# Submitted via: ExactAudioCopy v0.95b1
#
DISCID=960bb60c
DTITLE=Corinne Bailey Rae - Corinne Bailey Rae
DYEAR=2006
DGENRE=Blues
TTITLE0=Like A Star
TTITLE1=Enchantment
TTITLE2=Put Your Records On
TTITLE3=Till It Happens to You
TTITLE4=Trouble Sleeping
TTITLE5=Call Me When You Get This
TTITLE6=Choux Pastry Heart
TTITLE7=Breathless
TTITLE8=I'd Like To
TTITLE9=Butterfly
TTITLE10=Seasons Change
TTITLE11=Another Rainy Day
EXTD=
EXTT0=
EXTT1=
EXTT2=
EXTT3=
EXTT4=
EXTT5=
EXTT6=
EXTT7=
EXTT8=
EXTT9=
EXTT10=
EXTT11=
PLAYORDER=
